<mxfile modified="2023-10-24T00:45:17.855Z" host="app.diagrams.net" agent="Mozilla/5.0 (Windows NT 10.0; Win64; x64) AppleWebKit/537.36 (KHTML, like Gecko) Chrome/118.0.0.0 Safari/537.36" etag="rCLp5O-hyw4jUoYEbo9k" version="22.0.6" type="github">
  <diagram id="f106602c-feb2-e66a-4537-3a34d633f6aa" name="Page-1">
    <mxGraphModel dx="1257" dy="651" grid="1" gridSize="10" guides="1" tooltips="1" connect="1" arrows="1" fold="1" page="1" pageScale="1" pageWidth="1169" pageHeight="827" background="none" math="0" shadow="0">
      <root>
        <mxCell id="0" />
        <mxCell id="1" parent="0" />
        <mxCell id="14" value="&lt;b style=&quot;font-size: 18px;&quot;&gt;Google &lt;/b&gt;Cloud Platform" style="fillColor=#dae8fc;strokeColor=#6c8ebf;shadow=0;fontSize=18;align=left;spacing=10;9E9E9E;verticalAlign=top;spacingTop=-4;fontStyle=0;spacingLeft=40;html=1;movable=1;resizable=1;rotatable=1;deletable=1;editable=1;locked=0;connectable=1;container=0;" parent="1" vertex="1">
          <mxGeometry x="150" y="260" width="930" height="1140" as="geometry" />
        </mxCell>
        <mxCell id="2" value="Architecture: Proyek Akhir Kriteria Submission" style="fillColor=#4DA1F5;strokeColor=none;shadow=1;gradientColor=none;fontSize=14;align=left;spacingLeft=50;fontColor=#ffffff;html=1;" parent="1" vertex="1">
          <mxGeometry x="154" y="60" width="765" height="40" as="geometry" />
        </mxCell>
        <mxCell id="BLvqwAtGWl9acbZ8wkbC-81" value="" style="edgeStyle=orthogonalEdgeStyle;rounded=0;orthogonalLoop=1;jettySize=auto;html=1;fontFamily=Helvetica;fontSize=15;fontColor=#000000;strokeWidth=2;" parent="1" source="BLvqwAtGWl9acbZ8wkbC-26" target="BLvqwAtGWl9acbZ8wkbC-31" edge="1">
          <mxGeometry relative="1" as="geometry" />
        </mxCell>
        <mxCell id="BLvqwAtGWl9acbZ8wkbC-26" value="" style="sketch=0;pointerEvents=1;shadow=0;dashed=0;html=1;strokeColor=none;fillColor=#434445;aspect=fixed;labelPosition=center;verticalLabelPosition=bottom;verticalAlign=top;align=center;outlineConnect=0;shape=mxgraph.vvd.laptop;" parent="1" vertex="1">
          <mxGeometry x="260" y="121" width="111.11" height="80" as="geometry" />
        </mxCell>
        <mxCell id="BLvqwAtGWl9acbZ8wkbC-31" value="" style="image;aspect=fixed;perimeter=ellipsePerimeter;html=1;align=center;shadow=0;dashed=0;spacingTop=3;image=img/lib/active_directory/internet_globe.svg;" parent="1" vertex="1">
          <mxGeometry x="539" y="121" width="80" height="80" as="geometry" />
        </mxCell>
        <mxCell id="15" value="" style="shape=mxgraph.gcp2.google_cloud_platform;fillColor=#F6F6F6;strokeColor=none;shadow=0;gradientColor=none;" parent="1" vertex="1">
          <mxGeometry x="169" y="271" width="23" height="20" as="geometry">
            <mxPoint x="20" y="11" as="offset" />
          </mxGeometry>
        </mxCell>
        <mxCell id="BLvqwAtGWl9acbZ8wkbC-93" value="" style="sketch=0;points=[[0,0,0],[0.25,0,0],[0.5,0,0],[0.75,0,0],[1,0,0],[1,0.25,0],[1,0.5,0],[1,0.75,0],[1,1,0],[0.75,1,0],[0.5,1,0],[0.25,1,0],[0,1,0],[0,0.75,0],[0,0.5,0],[0,0.25,0]];rounded=1;absoluteArcSize=1;arcSize=2;html=1;strokeColor=#FFFFFF;shadow=0;dashed=1;fontSize=14;align=center;verticalAlign=top;spacing=10;spacingTop=-3;whiteSpace=wrap;fillColor=#b0e3e6;labelBackgroundColor=none;labelBorderColor=none;spacingLeft=3;fontFamily=Helvetica;strokeWidth=3;container=0;" parent="1" vertex="1">
          <mxGeometry x="169" y="721" width="861" height="639" as="geometry" />
        </mxCell>
        <mxCell id="BLvqwAtGWl9acbZ8wkbC-119" value="" style="group" parent="1" vertex="1" connectable="0">
          <mxGeometry x="179.99835016835016" y="671" width="219.00164983164984" height="80" as="geometry" />
        </mxCell>
        <mxCell id="BLvqwAtGWl9acbZ8wkbC-109" value="" style="shadow=1;strokeWidth=1;rounded=1;absoluteArcSize=1;arcSize=2;dashed=0;labelBackgroundColor=none;labelBorderColor=none;align=center;verticalAlign=top;spacingLeft=-10;fontFamily=Helvetica;fontSize=15;html=1;container=0;strokeColor=none;" parent="BLvqwAtGWl9acbZ8wkbC-119" vertex="1">
          <mxGeometry x="2.6016498316498424" y="20" width="216.4" height="60" as="geometry" />
        </mxCell>
        <mxCell id="BLvqwAtGWl9acbZ8wkbC-110" value="&lt;div style=&quot;font-size: 12px;&quot;&gt;&lt;font style=&quot;font-size: 12px;&quot;&gt;&lt;span style=&quot;background-color: initial; font-size: 12px;&quot;&gt;&lt;b style=&quot;font-size: 12px;&quot;&gt;VPC Network: mynetwork&lt;/b&gt;&lt;/span&gt;&lt;br style=&quot;font-size: 12px;&quot;&gt;&lt;/font&gt;&lt;/div&gt;&lt;div style=&quot;font-size: 12px;&quot;&gt;&lt;font style=&quot;font-size: 12px;&quot;&gt;Cloud Virtual Network&lt;/font&gt;&lt;/div&gt;" style="dashed=0;connectable=0;html=1;fillColor=#5184F3;strokeColor=none;shape=mxgraph.gcp2.hexIcon;prIcon=virtual_private_cloud;part=1;labelPosition=right;verticalLabelPosition=middle;align=left;verticalAlign=middle;spacingLeft=-10;fontColor=#000000;fontSize=12;overflow=visible;labelBackgroundColor=none;labelBorderColor=none;instNum=0;textDirection=ltr;spacingTop=20;spacing=-2;" parent="BLvqwAtGWl9acbZ8wkbC-119" vertex="1">
          <mxGeometry x="-5" y="19.5" width="75" height="60.5" as="geometry">
            <mxPoint x="5" y="-19.5" as="offset" />
          </mxGeometry>
        </mxCell>
        <mxCell id="BLvqwAtGWl9acbZ8wkbC-58" value="" style="points=[[0,0,0],[0.25,0,0],[0.5,0,0],[0.75,0,0],[1,0,0],[1,0.25,0],[1,0.5,0],[1,0.75,0],[1,1,0],[0.75,1,0],[0.5,1,0],[0.25,1,0],[0,1,0],[0,0.75,0],[0,0.5,0],[0,0.25,0]];rounded=0;absoluteArcSize=1;arcSize=2;html=1;strokeColor=#FFFFFF;shadow=0;fontSize=12;align=left;verticalAlign=top;spacing=10;spacingTop=-4;whiteSpace=wrap;fillColor=#b1ddf0;labelBackgroundColor=none;labelBorderColor=none;spacingLeft=-10;fontFamily=Helvetica;strokeWidth=3;glass=0;dashed=1;" parent="1" vertex="1">
          <mxGeometry x="279" y="310" width="640" height="350" as="geometry" />
        </mxCell>
        <mxCell id="BLvqwAtGWl9acbZ8wkbC-281" style="edgeStyle=orthogonalEdgeStyle;rounded=0;orthogonalLoop=1;jettySize=auto;html=1;entryX=0.5;entryY=0;entryDx=0;entryDy=0;fontFamily=Helvetica;fontSize=15;fontColor=#000000;strokeWidth=2;" parent="1" source="BLvqwAtGWl9acbZ8wkbC-67" target="BLvqwAtGWl9acbZ8wkbC-72" edge="1">
          <mxGeometry relative="1" as="geometry" />
        </mxCell>
        <mxCell id="BLvqwAtGWl9acbZ8wkbC-67" value="&lt;div&gt;&lt;span style=&quot;background-color: initial;&quot;&gt;Anycast IP&lt;/span&gt;&lt;br&gt;&lt;/div&gt;" style="whiteSpace=wrap;html=1;dashed=0;labelBackgroundColor=none;labelBorderColor=none;align=center;verticalAlign=top;spacingLeft=0;fontFamily=Helvetica;fontSize=14;strokeColor=none;" parent="1" vertex="1">
          <mxGeometry x="489" y="330" width="180" height="30" as="geometry" />
        </mxCell>
        <mxCell id="BLvqwAtGWl9acbZ8wkbC-73" value="Target Proxy" style="whiteSpace=wrap;html=1;dashed=0;labelBackgroundColor=none;labelBorderColor=none;align=center;verticalAlign=top;spacingLeft=0;fontFamily=Helvetica;fontSize=14;strokeColor=none;" parent="1" vertex="1">
          <mxGeometry x="489" y="470" width="180" height="30" as="geometry" />
        </mxCell>
        <mxCell id="BLvqwAtGWl9acbZ8wkbC-72" value="Global Forwarding Rule" style="whiteSpace=wrap;html=1;dashed=0;labelBackgroundColor=none;labelBorderColor=none;align=center;verticalAlign=top;spacingLeft=0;fontFamily=Helvetica;fontSize=14;strokeColor=none;" parent="1" vertex="1">
          <mxGeometry x="489" y="399" width="180" height="30" as="geometry" />
        </mxCell>
        <mxCell id="BLvqwAtGWl9acbZ8wkbC-76" value="Url Map" style="whiteSpace=wrap;html=1;dashed=0;labelBackgroundColor=none;labelBorderColor=none;align=center;verticalAlign=top;spacingLeft=0;fontFamily=Helvetica;fontSize=14;strokeColor=none;" parent="1" vertex="1">
          <mxGeometry x="489" y="540" width="180" height="30" as="geometry" />
        </mxCell>
        <mxCell id="BLvqwAtGWl9acbZ8wkbC-75" value="Backend Service" style="whiteSpace=wrap;html=1;dashed=0;labelBackgroundColor=none;labelBorderColor=none;align=center;verticalAlign=top;spacingLeft=0;fontFamily=Helvetica;fontSize=14;strokeColor=none;" parent="1" vertex="1">
          <mxGeometry x="489" y="600" width="180" height="30" as="geometry" />
        </mxCell>
        <mxCell id="BLvqwAtGWl9acbZ8wkbC-74" value="Health Check" style="whiteSpace=wrap;html=1;dashed=0;labelBackgroundColor=none;labelBorderColor=none;align=center;verticalAlign=top;spacingLeft=0;fontFamily=Helvetica;fontSize=14;strokeColor=none;" parent="1" vertex="1">
          <mxGeometry x="729" y="540" width="180" height="30" as="geometry" />
        </mxCell>
        <mxCell id="BLvqwAtGWl9acbZ8wkbC-50" value="Cloud Load&#xa;Balancing" style="dashed=0;connectable=0;html=1;fillColor=#5184F3;strokeColor=none;shape=mxgraph.gcp2.hexIcon;prIcon=cloud_load_balancing;part=1;labelPosition=center;verticalLabelPosition=bottom;align=center;verticalAlign=top;spacingLeft=-10;fontColor=#000000;fontSize=15;overflow=visible;labelBackgroundColor=none;labelBorderColor=none;" parent="1" vertex="1">
          <mxGeometry x="348" y="458" width="110" height="90" as="geometry">
            <mxPoint x="5" y="-19.5" as="offset" />
          </mxGeometry>
        </mxCell>
        <mxCell id="BLvqwAtGWl9acbZ8wkbC-92" value="" style="shape=image;html=1;verticalAlign=top;verticalLabelPosition=bottom;labelBackgroundColor=#ffffff;imageAspect=0;aspect=fixed;image=https://cdn1.iconfinder.com/data/icons/unicons-line-vol-5/24/padlock-128.png;dashed=0;labelBorderColor=none;align=center;spacingLeft=-10;fontFamily=Helvetica;fontSize=15;fontColor=#000000;fillColor=#5184F3;" parent="1" vertex="1">
          <mxGeometry x="554" y="689.5" width="50.5" height="50.5" as="geometry" />
        </mxCell>
        <mxCell id="BLvqwAtGWl9acbZ8wkbC-120" value="&lt;b&gt;Firewall Rules&lt;/b&gt;" style="text;strokeColor=none;align=center;fillColor=none;html=1;verticalAlign=middle;whiteSpace=wrap;rounded=0;fontSize=15;fontFamily=Helvetica;fontColor=#000000;" parent="1" vertex="1">
          <mxGeometry x="515" y="738" width="129" height="30" as="geometry" />
        </mxCell>
        <mxCell id="BLvqwAtGWl9acbZ8wkbC-87" value="" style="edgeStyle=orthogonalEdgeStyle;rounded=0;orthogonalLoop=1;jettySize=auto;html=1;fontFamily=Helvetica;fontSize=15;fontColor=#000000;entryX=0.5;entryY=0;entryDx=0;entryDy=0;strokeWidth=2;" parent="1" source="BLvqwAtGWl9acbZ8wkbC-72" target="BLvqwAtGWl9acbZ8wkbC-73" edge="1">
          <mxGeometry relative="1" as="geometry">
            <mxPoint x="779" y="770" as="targetPoint" />
          </mxGeometry>
        </mxCell>
        <mxCell id="BLvqwAtGWl9acbZ8wkbC-88" value="" style="edgeStyle=orthogonalEdgeStyle;rounded=0;orthogonalLoop=1;jettySize=auto;html=1;fontFamily=Helvetica;fontSize=15;fontColor=#000000;entryX=0.5;entryY=0;entryDx=0;entryDy=0;strokeWidth=2;" parent="1" source="BLvqwAtGWl9acbZ8wkbC-73" target="BLvqwAtGWl9acbZ8wkbC-76" edge="1">
          <mxGeometry relative="1" as="geometry" />
        </mxCell>
        <mxCell id="BLvqwAtGWl9acbZ8wkbC-90" value="" style="edgeStyle=orthogonalEdgeStyle;rounded=0;orthogonalLoop=1;jettySize=auto;html=1;fontFamily=Helvetica;fontSize=15;fontColor=#000000;strokeWidth=2;" parent="1" source="BLvqwAtGWl9acbZ8wkbC-76" target="BLvqwAtGWl9acbZ8wkbC-75" edge="1">
          <mxGeometry relative="1" as="geometry" />
        </mxCell>
        <mxCell id="BLvqwAtGWl9acbZ8wkbC-89" value="" style="rounded=0;orthogonalLoop=1;jettySize=auto;html=1;fontFamily=Helvetica;fontSize=15;fontColor=#000000;shape=link;strokeWidth=2;" parent="1" source="BLvqwAtGWl9acbZ8wkbC-76" target="BLvqwAtGWl9acbZ8wkbC-74" edge="1">
          <mxGeometry relative="1" as="geometry" />
        </mxCell>
        <mxCell id="BLvqwAtGWl9acbZ8wkbC-118" style="edgeStyle=orthogonalEdgeStyle;rounded=0;orthogonalLoop=1;jettySize=auto;html=1;entryX=0.5;entryY=0;entryDx=0;entryDy=0;fontFamily=Helvetica;fontSize=15;fontColor=#000000;strokeWidth=2;" parent="1" source="BLvqwAtGWl9acbZ8wkbC-75" target="BLvqwAtGWl9acbZ8wkbC-92" edge="1">
          <mxGeometry relative="1" as="geometry" />
        </mxCell>
        <mxCell id="BLvqwAtGWl9acbZ8wkbC-284" style="edgeStyle=orthogonalEdgeStyle;rounded=0;orthogonalLoop=1;jettySize=auto;html=1;fontFamily=Helvetica;fontSize=15;fontColor=#000000;strokeWidth=2;" parent="1" source="BLvqwAtGWl9acbZ8wkbC-282" target="BLvqwAtGWl9acbZ8wkbC-67" edge="1">
          <mxGeometry relative="1" as="geometry" />
        </mxCell>
        <mxCell id="BLvqwAtGWl9acbZ8wkbC-282" value="Internet" style="text;strokeColor=none;align=center;fillColor=none;html=1;verticalAlign=middle;whiteSpace=wrap;rounded=0;fontSize=15;fontFamily=Helvetica;fontColor=#000000;" parent="1" vertex="1">
          <mxGeometry x="549" y="201" width="60" height="30" as="geometry" />
        </mxCell>
        <mxCell id="BLvqwAtGWl9acbZ8wkbC-286" style="edgeStyle=orthogonalEdgeStyle;rounded=0;orthogonalLoop=1;jettySize=auto;html=1;entryX=0.533;entryY=0.008;entryDx=0;entryDy=0;entryPerimeter=0;fontFamily=Helvetica;fontSize=15;fontColor=#000000;strokeWidth=2;" parent="1" source="BLvqwAtGWl9acbZ8wkbC-120" target="UPQlUuGARVjlreprbhLB-81" edge="1">
          <mxGeometry relative="1" as="geometry">
            <mxPoint x="730.0799999999999" y="880.0000000000002" as="targetPoint" />
            <Array as="points">
              <mxPoint x="580" y="860" />
              <mxPoint x="844" y="860" />
            </Array>
          </mxGeometry>
        </mxCell>
        <mxCell id="UPQlUuGARVjlreprbhLB-28" value="&lt;b&gt;Region:&amp;nbsp;asia-southeast2&lt;/b&gt;" style="sketch=0;points=[[0,0,0],[0.25,0,0],[0.5,0,0],[0.75,0,0],[1,0,0],[1,0.25,0],[1,0.5,0],[1,0.75,0],[1,1,0],[0.75,1,0],[0.5,1,0],[0.25,1,0],[0,1,0],[0,0.75,0],[0,0.5,0],[0,0.25,0]];rounded=1;absoluteArcSize=1;arcSize=2;html=1;strokeColor=#b85450;shadow=0;dashed=0;fontSize=15;align=left;verticalAlign=top;spacing=10;spacingTop=-3;whiteSpace=wrap;fillColor=#f8cecc;labelBackgroundColor=none;labelBorderColor=none;spacingLeft=0;fontFamily=Helvetica;container=0;" vertex="1" parent="1">
          <mxGeometry x="140" y="2590" width="370" height="130" as="geometry" />
        </mxCell>
        <mxCell id="UPQlUuGARVjlreprbhLB-29" value="" style="group" vertex="1" connectable="0" parent="1">
          <mxGeometry x="160" y="2633.5" width="350" height="126.5" as="geometry" />
        </mxCell>
        <mxCell id="UPQlUuGARVjlreprbhLB-30" value="" style="group" vertex="1" connectable="0" parent="UPQlUuGARVjlreprbhLB-29">
          <mxGeometry width="350" height="126.5" as="geometry" />
        </mxCell>
        <mxCell id="UPQlUuGARVjlreprbhLB-31" value="" style="group" vertex="1" connectable="0" parent="UPQlUuGARVjlreprbhLB-30">
          <mxGeometry y="20.5" width="350" height="106" as="geometry" />
        </mxCell>
        <mxCell id="UPQlUuGARVjlreprbhLB-32" value="&lt;div style=&quot;font-size: 12px;&quot;&gt;&lt;font color=&quot;#000000&quot; style=&quot;font-size: 12px;&quot;&gt;SubNet:&amp;nbsp;&lt;/font&gt;&lt;/div&gt;&lt;div style=&quot;font-size: 12px;&quot;&gt;&lt;span style=&quot;color: rgb(0, 0, 0); background-color: initial; font-size: 12px;&quot;&gt;192.168.0.0/20&amp;nbsp;&lt;/span&gt;&lt;/div&gt;&lt;div style=&quot;font-size: 12px;&quot;&gt;&lt;span style=&quot;color: rgb(0, 0, 0); background-color: initial; font-size: 12px;&quot;&gt;(Auto-mode)&amp;nbsp;&lt;/span&gt;&lt;/div&gt;" style="sketch=0;points=[[0,0,0],[0.25,0,0],[0.5,0,0],[0.75,0,0],[1,0,0],[1,0.25,0],[1,0.5,0],[1,0.75,0],[1,1,0],[0.75,1,0],[0.5,1,0],[0.25,1,0],[0,1,0],[0,0.75,0],[0,0.5,0],[0,0.25,0]];rounded=1;absoluteArcSize=1;arcSize=2;html=1;strokeColor=none;gradientColor=none;shadow=0;dashed=0;fontSize=12;fontColor=#9E9E9E;align=left;verticalAlign=middle;spacing=10;spacingTop=-100;whiteSpace=wrap;fillColor=#FFF3E0;labelBackgroundColor=none;labelBorderColor=none;spacingLeft=-15;fontFamily=Helvetica;container=0;horizontal=1;spacingBottom=0;movable=0;resizable=0;rotatable=0;deletable=0;editable=0;locked=1;connectable=0;" vertex="1" parent="UPQlUuGARVjlreprbhLB-31">
          <mxGeometry x="-10" y="-24" width="350" height="80" as="geometry">
            <mxPoint x="10" y="50" as="offset" />
          </mxGeometry>
        </mxCell>
        <mxCell id="UPQlUuGARVjlreprbhLB-33" value="" style="sketch=0;pointerEvents=1;shadow=0;dashed=0;html=1;strokeColor=none;fillColor=#00CC00;labelPosition=center;verticalLabelPosition=bottom;verticalAlign=top;outlineConnect=0;align=center;shape=mxgraph.office.communications.voip_gateway;labelBackgroundColor=none;labelBorderColor=none;spacingLeft=-10;fontFamily=Helvetica;fontSize=15;fontColor=#000000;" vertex="1" parent="UPQlUuGARVjlreprbhLB-31">
          <mxGeometry x="80" y="7.5" width="51" height="15" as="geometry" />
        </mxCell>
        <mxCell id="UPQlUuGARVjlreprbhLB-34" value="192.168.0.1" style="text;strokeColor=none;align=center;fillColor=none;html=1;verticalAlign=middle;whiteSpace=wrap;rounded=0;fontSize=12;fontFamily=Helvetica;fontColor=#000000;" vertex="1" parent="UPQlUuGARVjlreprbhLB-31">
          <mxGeometry x="140" width="60" height="30" as="geometry" />
        </mxCell>
        <mxCell id="UPQlUuGARVjlreprbhLB-35" value="" style="group" vertex="1" connectable="0" parent="UPQlUuGARVjlreprbhLB-30">
          <mxGeometry x="215" width="130" height="120.5" as="geometry" />
        </mxCell>
        <mxCell id="UPQlUuGARVjlreprbhLB-36" value="VMs" style="sketch=0;points=[[0,0,0],[0.25,0,0],[0.5,0,0],[0.75,0,0],[1,0,0],[1,0.25,0],[1,0.5,0],[1,0.75,0],[1,1,0],[0.75,1,0],[0.5,1,0],[0.25,1,0],[0,1,0],[0,0.75,0],[0,0.5,0],[0,0.25,0]];rounded=1;absoluteArcSize=1;arcSize=2;html=1;strokeColor=none;gradientColor=none;shadow=0;dashed=0;fontSize=12;fontColor=#000000;align=left;verticalAlign=bottom;spacing=10;spacingTop=-4;whiteSpace=wrap;fillColor=#F8CECC;labelBackgroundColor=none;labelBorderColor=none;spacingLeft=-12;fontFamily=Helvetica;labelPosition=center;verticalLabelPosition=top;spacingBottom=23;" vertex="1" parent="UPQlUuGARVjlreprbhLB-35">
          <mxGeometry x="-10" y="0.5" width="130" height="70" as="geometry">
            <mxPoint x="10" y="50" as="offset" />
          </mxGeometry>
        </mxCell>
        <mxCell id="UPQlUuGARVjlreprbhLB-37" value="" style="sketch=0;points=[[0,0,0],[0.25,0,0],[0.5,0,0],[0.75,0,0],[1,0,0],[1,0.25,0],[1,0.5,0],[1,0.75,0],[1,1,0],[0.75,1,0],[0.5,1,0],[0.25,1,0],[0,1,0],[0,0.75,0],[0,0.5,0],[0,0.25,0]];rounded=1;absoluteArcSize=1;arcSize=2;html=1;strokeColor=none;gradientColor=none;shadow=0;dashed=0;fontSize=12;fontColor=#000000;align=left;verticalAlign=top;spacing=10;spacingTop=-55;whiteSpace=wrap;fillColor=#FFFFFF;labelBackgroundColor=none;labelBorderColor=none;spacingLeft=-10;fontFamily=Helvetica;container=0;" vertex="1" parent="UPQlUuGARVjlreprbhLB-35">
          <mxGeometry y="22.5" width="110" height="30" as="geometry">
            <mxPoint x="10" y="50" as="offset" />
          </mxGeometry>
        </mxCell>
        <mxCell id="UPQlUuGARVjlreprbhLB-38" value="mynet-asia-sh2-vm" style="text;strokeColor=none;align=center;fillColor=none;html=1;verticalAlign=middle;whiteSpace=wrap;rounded=0;fontSize=12;fontFamily=Helvetica;fontColor=#000000;" vertex="1" parent="UPQlUuGARVjlreprbhLB-35">
          <mxGeometry y="55.5" width="110" height="10" as="geometry" />
        </mxCell>
        <mxCell id="UPQlUuGARVjlreprbhLB-39" value="192.168.0.2&lt;br style=&quot;font-size: 10px;&quot;&gt;Compute Engine" style="dashed=0;connectable=0;html=1;fillColor=#5184F3;strokeColor=none;shape=mxgraph.gcp2.hexIcon;prIcon=compute_engine;part=1;labelPosition=right;verticalLabelPosition=middle;align=left;verticalAlign=middle;spacingLeft=-8;fontColor=#000000;fontSize=10;overflow=visible;labelBackgroundColor=none;labelBorderColor=none;instNum=0;gradientColor=none;shadow=0;spacingTop=5;spacingBottom=-30;" vertex="1" parent="UPQlUuGARVjlreprbhLB-35">
          <mxGeometry x="-4.220000000000027" y="19.5" width="37.22" height="35" as="geometry">
            <mxPoint x="5" y="-19.5" as="offset" />
          </mxGeometry>
        </mxCell>
        <mxCell id="UPQlUuGARVjlreprbhLB-40" value="" style="group" vertex="1" connectable="0" parent="1">
          <mxGeometry x="606" y="2590" width="240" height="280.5" as="geometry" />
        </mxCell>
        <mxCell id="UPQlUuGARVjlreprbhLB-41" value="&lt;b&gt;Region:&amp;nbsp;europe-west1&lt;/b&gt;" style="sketch=0;points=[[0,0,0],[0.25,0,0],[0.5,0,0],[0.75,0,0],[1,0,0],[1,0.25,0],[1,0.5,0],[1,0.75,0],[1,1,0],[0.75,1,0],[0.5,1,0],[0.25,1,0],[0,1,0],[0,0.75,0],[0,0.5,0],[0,0.25,0]];rounded=1;absoluteArcSize=1;arcSize=2;html=1;strokeColor=#b85450;shadow=0;dashed=0;fontSize=15;align=left;verticalAlign=top;spacing=10;spacingTop=-3;whiteSpace=wrap;fillColor=#f8cecc;labelBackgroundColor=none;labelBorderColor=none;spacingLeft=0;fontFamily=Helvetica;container=0;" vertex="1" parent="UPQlUuGARVjlreprbhLB-40">
          <mxGeometry width="240" height="130" as="geometry" />
        </mxCell>
        <mxCell id="UPQlUuGARVjlreprbhLB-42" value="&lt;div style=&quot;font-size: 12px;&quot;&gt;&lt;font color=&quot;#000000&quot; style=&quot;font-size: 12px;&quot;&gt;SubNet:&amp;nbsp;&lt;/font&gt;&lt;/div&gt;&lt;font color=&quot;#000000&quot;&gt;50.135.0.0/20&lt;/font&gt;&lt;span style=&quot;background-color: initial; color: rgb(0, 0, 0);&quot;&gt;&amp;nbsp;&lt;/span&gt;&lt;font color=&quot;#000000&quot;&gt;&lt;br&gt;&lt;/font&gt;&lt;div style=&quot;font-size: 12px;&quot;&gt;&lt;span style=&quot;color: rgb(0, 0, 0); background-color: initial; font-size: 12px;&quot;&gt;(Auto-mode)&amp;nbsp;&lt;/span&gt;&lt;/div&gt;" style="sketch=0;points=[[0,0,0],[0.25,0,0],[0.5,0,0],[0.75,0,0],[1,0,0],[1,0.25,0],[1,0.5,0],[1,0.75,0],[1,1,0],[0.75,1,0],[0.5,1,0],[0.25,1,0],[0,1,0],[0,0.75,0],[0,0.5,0],[0,0.25,0]];rounded=1;absoluteArcSize=1;arcSize=2;html=1;strokeColor=none;gradientColor=none;shadow=0;dashed=0;fontSize=12;fontColor=#9E9E9E;align=left;verticalAlign=middle;spacing=10;spacingTop=-100;whiteSpace=wrap;fillColor=#FFF3E0;labelBackgroundColor=none;labelBorderColor=none;spacingLeft=-15;fontFamily=Helvetica;container=0;horizontal=1;spacingBottom=0;" vertex="1" parent="UPQlUuGARVjlreprbhLB-40">
          <mxGeometry x="10" y="40" width="220" height="80" as="geometry">
            <mxPoint x="10" y="50" as="offset" />
          </mxGeometry>
        </mxCell>
        <mxCell id="UPQlUuGARVjlreprbhLB-43" value="VMs" style="sketch=0;points=[[0,0,0],[0.25,0,0],[0.5,0,0],[0.75,0,0],[1,0,0],[1,0.25,0],[1,0.5,0],[1,0.75,0],[1,1,0],[0.75,1,0],[0.5,1,0],[0.25,1,0],[0,1,0],[0,0.75,0],[0,0.5,0],[0,0.25,0]];rounded=1;absoluteArcSize=1;arcSize=2;html=1;strokeColor=none;gradientColor=none;shadow=0;dashed=0;fontSize=12;fontColor=#000000;align=left;verticalAlign=bottom;spacing=10;spacingTop=-4;whiteSpace=wrap;fillColor=#F8CECC;labelBackgroundColor=none;labelBorderColor=none;spacingLeft=-12;fontFamily=Helvetica;labelPosition=center;verticalLabelPosition=top;spacingBottom=23;" vertex="1" parent="UPQlUuGARVjlreprbhLB-40">
          <mxGeometry x="94" y="44" width="130" height="70" as="geometry">
            <mxPoint x="10" y="50" as="offset" />
          </mxGeometry>
        </mxCell>
        <mxCell id="UPQlUuGARVjlreprbhLB-44" value="" style="sketch=0;points=[[0,0,0],[0.25,0,0],[0.5,0,0],[0.75,0,0],[1,0,0],[1,0.25,0],[1,0.5,0],[1,0.75,0],[1,1,0],[0.75,1,0],[0.5,1,0],[0.25,1,0],[0,1,0],[0,0.75,0],[0,0.5,0],[0,0.25,0]];rounded=1;absoluteArcSize=1;arcSize=2;html=1;strokeColor=none;gradientColor=none;shadow=0;dashed=0;fontSize=12;fontColor=#000000;align=left;verticalAlign=top;spacing=10;spacingTop=-55;whiteSpace=wrap;fillColor=#FFFFFF;labelBackgroundColor=none;labelBorderColor=none;spacingLeft=-10;fontFamily=Helvetica;container=0;" vertex="1" parent="UPQlUuGARVjlreprbhLB-40">
          <mxGeometry x="104" y="66" width="110" height="30" as="geometry">
            <mxPoint x="10" y="50" as="offset" />
          </mxGeometry>
        </mxCell>
        <mxCell id="UPQlUuGARVjlreprbhLB-45" value="mynet-eu1-vm" style="text;strokeColor=none;align=center;fillColor=none;html=1;verticalAlign=middle;whiteSpace=wrap;rounded=0;fontSize=12;fontFamily=Helvetica;fontColor=#000000;" vertex="1" parent="UPQlUuGARVjlreprbhLB-40">
          <mxGeometry x="104" y="99" width="110" height="10" as="geometry" />
        </mxCell>
        <mxCell id="UPQlUuGARVjlreprbhLB-46" value="50.135.0.2&lt;br style=&quot;font-size: 10px;&quot;&gt;Compute Engine" style="dashed=0;connectable=0;html=1;fillColor=#5184F3;strokeColor=none;shape=mxgraph.gcp2.hexIcon;prIcon=compute_engine;part=1;labelPosition=right;verticalLabelPosition=middle;align=left;verticalAlign=middle;spacingLeft=-8;fontColor=#000000;fontSize=10;overflow=visible;labelBackgroundColor=none;labelBorderColor=none;instNum=0;gradientColor=none;shadow=0;spacingTop=5;spacingBottom=-30;" vertex="1" parent="UPQlUuGARVjlreprbhLB-40">
          <mxGeometry x="99.77999999999997" y="63" width="37.22" height="35" as="geometry">
            <mxPoint x="5" y="-19.5" as="offset" />
          </mxGeometry>
        </mxCell>
        <mxCell id="UPQlUuGARVjlreprbhLB-94" value="" style="group" vertex="1" connectable="0" parent="1">
          <mxGeometry x="280" y="1010" width="810" height="370" as="geometry" />
        </mxCell>
        <mxCell id="UPQlUuGARVjlreprbhLB-54" value="&lt;font style=&quot;font-size: 14px;&quot; color=&quot;#000000&quot;&gt;Region:&lt;br&gt;asia-southeast2&lt;br&gt;&lt;/font&gt;" style="sketch=0;points=[[0,0,0],[0.25,0,0],[0.5,0,0],[0.75,0,0],[1,0,0],[1,0.25,0],[1,0.5,0],[1,0.75,0],[1,1,0],[0.75,1,0],[0.5,1,0],[0.25,1,0],[0,1,0],[0,0.75,0],[0,0.5,0],[0,0.25,0]];rounded=1;absoluteArcSize=1;arcSize=2;html=1;strokeColor=#FFFFFF;shadow=0;dashed=1;fontSize=12;align=left;verticalAlign=top;spacing=10;spacingTop=-75;whiteSpace=wrap;fillColor=#ffe6cc;spacingLeft=-550;spacingBottom=0;container=0;strokeWidth=2;" vertex="1" parent="UPQlUuGARVjlreprbhLB-94">
          <mxGeometry x="-20" y="-70" width="270" height="370" as="geometry">
            <mxPoint x="560" y="70" as="offset" />
          </mxGeometry>
        </mxCell>
        <mxCell id="UPQlUuGARVjlreprbhLB-55" value="Zone:&lt;br&gt;asia-southeast2 (a, b, c)" style="sketch=0;points=[[0,0,0],[0.25,0,0],[0.5,0,0],[0.75,0,0],[1,0,0],[1,0.25,0],[1,0.5,0],[1,0.75,0],[1,1,0],[0.75,1,0],[0.5,1,0],[0.25,1,0],[0,1,0],[0,0.75,0],[0,0.5,0],[0,0.25,0]];rounded=1;absoluteArcSize=1;arcSize=2;html=1;strokeColor=none;gradientColor=none;shadow=0;dashed=0;fontSize=12;fontColor=#000000;align=left;verticalAlign=top;spacing=10;spacingTop=-55;whiteSpace=wrap;fillColor=#FFF3E0;container=0;" vertex="1" parent="UPQlUuGARVjlreprbhLB-94">
          <mxGeometry x="-10" y="-20" width="240" height="300" as="geometry">
            <mxPoint x="10" y="50" as="offset" />
          </mxGeometry>
        </mxCell>
        <mxCell id="UPQlUuGARVjlreprbhLB-56" value="&lt;font color=&quot;#000000&quot;&gt;Subnet: default&amp;nbsp;asia-southeast2&lt;br&gt;&lt;br&gt;&lt;/font&gt;" style="sketch=0;points=[[0,0,0],[0.25,0,0],[0.5,0,0],[0.75,0,0],[1,0,0],[1,0.25,0],[1,0.5,0],[1,0.75,0],[1,1,0],[0.75,1,0],[0.5,1,0],[0.25,1,0],[0,1,0],[0,0.75,0],[0,0.5,0],[0,0.25,0]];rounded=1;absoluteArcSize=1;arcSize=2;html=1;strokeColor=none;gradientColor=none;shadow=0;dashed=0;fontSize=12;fontColor=#9E9E9E;align=left;verticalAlign=top;spacing=10;spacingTop=-50;whiteSpace=wrap;fillColor=#FBE9E7;container=0;spacingLeft=-12;" vertex="1" parent="UPQlUuGARVjlreprbhLB-94">
          <mxGeometry y="30" width="200" height="230" as="geometry">
            <mxPoint x="10" y="50" as="offset" />
          </mxGeometry>
        </mxCell>
        <mxCell id="UPQlUuGARVjlreprbhLB-60" value="" style="group" vertex="1" connectable="0" parent="UPQlUuGARVjlreprbhLB-94">
          <mxGeometry x="20" y="80" width="130" height="200.5" as="geometry" />
        </mxCell>
        <mxCell id="UPQlUuGARVjlreprbhLB-61" value="Instance Template" style="sketch=0;points=[[0,0,0],[0.25,0,0],[0.5,0,0],[0.75,0,0],[1,0,0],[1,0.25,0],[1,0.5,0],[1,0.75,0],[1,1,0],[0.75,1,0],[0.5,1,0],[0.25,1,0],[0,1,0],[0,0.75,0],[0,0.5,0],[0,0.25,0]];rounded=1;absoluteArcSize=1;arcSize=2;html=1;strokeColor=none;gradientColor=none;shadow=0;dashed=0;fontSize=12;fontColor=#000000;align=left;verticalAlign=bottom;spacing=10;spacingTop=-4;whiteSpace=wrap;fillColor=#F8CECC;labelBackgroundColor=none;labelBorderColor=none;spacingLeft=-12;fontFamily=Helvetica;labelPosition=center;verticalLabelPosition=top;spacingBottom=23;" vertex="1" parent="UPQlUuGARVjlreprbhLB-60">
          <mxGeometry x="-10" y="0.5" width="130" height="70" as="geometry">
            <mxPoint x="10" y="50" as="offset" />
          </mxGeometry>
        </mxCell>
        <mxCell id="UPQlUuGARVjlreprbhLB-62" value="" style="sketch=0;points=[[0,0,0],[0.25,0,0],[0.5,0,0],[0.75,0,0],[1,0,0],[1,0.25,0],[1,0.5,0],[1,0.75,0],[1,1,0],[0.75,1,0],[0.5,1,0],[0.25,1,0],[0,1,0],[0,0.75,0],[0,0.5,0],[0,0.25,0]];rounded=1;absoluteArcSize=1;arcSize=2;html=1;strokeColor=none;gradientColor=none;shadow=0;dashed=0;fontSize=12;fontColor=#000000;align=left;verticalAlign=top;spacing=10;spacingTop=-55;whiteSpace=wrap;fillColor=#FFFFFF;labelBackgroundColor=none;labelBorderColor=none;spacingLeft=-10;fontFamily=Helvetica;container=0;" vertex="1" parent="UPQlUuGARVjlreprbhLB-60">
          <mxGeometry y="22.5" width="110" height="30" as="geometry">
            <mxPoint x="10" y="50" as="offset" />
          </mxGeometry>
        </mxCell>
        <mxCell id="UPQlUuGARVjlreprbhLB-63" value="asia-sh2-template" style="text;strokeColor=none;align=center;fillColor=none;html=1;verticalAlign=middle;whiteSpace=wrap;rounded=0;fontSize=12;fontFamily=Helvetica;fontColor=#000000;" vertex="1" parent="UPQlUuGARVjlreprbhLB-60">
          <mxGeometry y="55.5" width="110" height="10" as="geometry" />
        </mxCell>
        <mxCell id="UPQlUuGARVjlreprbhLB-64" value="192.168.0.2&lt;br style=&quot;font-size: 10px;&quot;&gt;Compute Engine" style="dashed=0;connectable=0;html=1;fillColor=#5184F3;strokeColor=none;shape=mxgraph.gcp2.hexIcon;prIcon=compute_engine;part=1;labelPosition=right;verticalLabelPosition=middle;align=left;verticalAlign=middle;spacingLeft=-8;fontColor=#000000;fontSize=10;overflow=visible;labelBackgroundColor=none;labelBorderColor=none;instNum=0;gradientColor=none;shadow=0;spacingTop=5;spacingBottom=-30;" vertex="1" parent="UPQlUuGARVjlreprbhLB-60">
          <mxGeometry x="-4.220000000000027" y="19.5" width="37.22" height="35" as="geometry">
            <mxPoint x="5" y="-19.5" as="offset" />
          </mxGeometry>
        </mxCell>
        <mxCell id="UPQlUuGARVjlreprbhLB-70" value="" style="group" vertex="1" connectable="0" parent="UPQlUuGARVjlreprbhLB-60">
          <mxGeometry y="80" width="130" height="120.5" as="geometry" />
        </mxCell>
        <mxCell id="UPQlUuGARVjlreprbhLB-71" value="Instance Group" style="sketch=0;points=[[0,0,0],[0.25,0,0],[0.5,0,0],[0.75,0,0],[1,0,0],[1,0.25,0],[1,0.5,0],[1,0.75,0],[1,1,0],[0.75,1,0],[0.5,1,0],[0.25,1,0],[0,1,0],[0,0.75,0],[0,0.5,0],[0,0.25,0]];rounded=1;absoluteArcSize=1;arcSize=2;html=1;strokeColor=none;gradientColor=none;shadow=0;dashed=0;fontSize=12;fontColor=#000000;align=left;verticalAlign=bottom;spacing=10;spacingTop=-4;whiteSpace=wrap;fillColor=#F8CECC;labelBackgroundColor=none;labelBorderColor=none;spacingLeft=-12;fontFamily=Helvetica;labelPosition=center;verticalLabelPosition=top;spacingBottom=23;" vertex="1" parent="UPQlUuGARVjlreprbhLB-70">
          <mxGeometry x="-10" y="0.5" width="130" height="70" as="geometry">
            <mxPoint x="10" y="50" as="offset" />
          </mxGeometry>
        </mxCell>
        <mxCell id="UPQlUuGARVjlreprbhLB-72" value="" style="sketch=0;points=[[0,0,0],[0.25,0,0],[0.5,0,0],[0.75,0,0],[1,0,0],[1,0.25,0],[1,0.5,0],[1,0.75,0],[1,1,0],[0.75,1,0],[0.5,1,0],[0.25,1,0],[0,1,0],[0,0.75,0],[0,0.5,0],[0,0.25,0]];rounded=1;absoluteArcSize=1;arcSize=2;html=1;strokeColor=none;gradientColor=none;shadow=0;dashed=0;fontSize=12;fontColor=#000000;align=left;verticalAlign=top;spacing=10;spacingTop=-55;whiteSpace=wrap;fillColor=#FFFFFF;labelBackgroundColor=none;labelBorderColor=none;spacingLeft=-10;fontFamily=Helvetica;container=0;" vertex="1" parent="UPQlUuGARVjlreprbhLB-70">
          <mxGeometry y="22.5" width="110" height="30" as="geometry">
            <mxPoint x="10" y="50" as="offset" />
          </mxGeometry>
        </mxCell>
        <mxCell id="UPQlUuGARVjlreprbhLB-73" value="asia-sh2-mig" style="text;strokeColor=none;align=center;fillColor=none;html=1;verticalAlign=middle;whiteSpace=wrap;rounded=0;fontSize=12;fontFamily=Helvetica;fontColor=#000000;" vertex="1" parent="UPQlUuGARVjlreprbhLB-70">
          <mxGeometry y="55.5" width="110" height="10" as="geometry" />
        </mxCell>
        <mxCell id="UPQlUuGARVjlreprbhLB-74" value="192.168.0.2&lt;br style=&quot;font-size: 10px;&quot;&gt;Compute Engine" style="dashed=0;connectable=0;html=1;fillColor=#5184F3;strokeColor=none;shape=mxgraph.gcp2.hexIcon;prIcon=compute_engine;part=1;labelPosition=right;verticalLabelPosition=middle;align=left;verticalAlign=middle;spacingLeft=-8;fontColor=#000000;fontSize=10;overflow=visible;labelBackgroundColor=none;labelBorderColor=none;instNum=0;gradientColor=none;shadow=0;spacingTop=5;spacingBottom=-30;" vertex="1" parent="UPQlUuGARVjlreprbhLB-70">
          <mxGeometry x="-4.220000000000027" y="19.5" width="37.22" height="35" as="geometry">
            <mxPoint x="5" y="-19.5" as="offset" />
          </mxGeometry>
        </mxCell>
        <mxCell id="UPQlUuGARVjlreprbhLB-81" value="&lt;font style=&quot;font-size: 14px;&quot; color=&quot;#000000&quot;&gt;Region:&lt;br&gt;&lt;span style=&quot;font-size: 14px;&quot;&gt;europe-west1&lt;/span&gt;&lt;br&gt;&lt;/font&gt;" style="sketch=0;points=[[0,0,0],[0.25,0,0],[0.5,0,0],[0.75,0,0],[1,0,0],[1,0.25,0],[1,0.5,0],[1,0.75,0],[1,1,0],[0.75,1,0],[0.5,1,0],[0.25,1,0],[0,1,0],[0,0.75,0],[0,0.5,0],[0,0.25,0]];rounded=1;absoluteArcSize=1;arcSize=2;html=1;strokeColor=#FFFFFF;shadow=0;dashed=1;fontSize=12;align=left;verticalAlign=top;spacing=10;spacingTop=-75;whiteSpace=wrap;fillColor=#ffe6cc;spacingLeft=-550;spacingBottom=0;container=0;strokeWidth=2;" vertex="1" parent="1">
          <mxGeometry x="700" y="940" width="270" height="370" as="geometry">
            <mxPoint x="560" y="70" as="offset" />
          </mxGeometry>
        </mxCell>
        <mxCell id="UPQlUuGARVjlreprbhLB-82" value="Zone:&lt;br&gt;europe-west1 (b, c, d)" style="sketch=0;points=[[0,0,0],[0.25,0,0],[0.5,0,0],[0.75,0,0],[1,0,0],[1,0.25,0],[1,0.5,0],[1,0.75,0],[1,1,0],[0.75,1,0],[0.5,1,0],[0.25,1,0],[0,1,0],[0,0.75,0],[0,0.5,0],[0,0.25,0]];rounded=1;absoluteArcSize=1;arcSize=2;html=1;strokeColor=none;gradientColor=none;shadow=0;dashed=0;fontSize=12;fontColor=#000000;align=left;verticalAlign=top;spacing=10;spacingTop=-55;whiteSpace=wrap;fillColor=#FFF3E0;container=0;" vertex="1" parent="1">
          <mxGeometry x="710" y="990" width="240" height="300" as="geometry">
            <mxPoint x="10" y="50" as="offset" />
          </mxGeometry>
        </mxCell>
        <mxCell id="UPQlUuGARVjlreprbhLB-83" value="&lt;font color=&quot;#000000&quot;&gt;Subnet: default europe-west1&lt;br&gt;&lt;br&gt;&lt;/font&gt;" style="sketch=0;points=[[0,0,0],[0.25,0,0],[0.5,0,0],[0.75,0,0],[1,0,0],[1,0.25,0],[1,0.5,0],[1,0.75,0],[1,1,0],[0.75,1,0],[0.5,1,0],[0.25,1,0],[0,1,0],[0,0.75,0],[0,0.5,0],[0,0.25,0]];rounded=1;absoluteArcSize=1;arcSize=2;html=1;strokeColor=none;gradientColor=none;shadow=0;dashed=0;fontSize=12;fontColor=#9E9E9E;align=left;verticalAlign=top;spacing=10;spacingTop=-50;whiteSpace=wrap;fillColor=#FBE9E7;container=0;spacingLeft=-12;" vertex="1" parent="1">
          <mxGeometry x="720" y="1040" width="200" height="230" as="geometry">
            <mxPoint x="10" y="50" as="offset" />
          </mxGeometry>
        </mxCell>
        <mxCell id="UPQlUuGARVjlreprbhLB-84" value="" style="group" vertex="1" connectable="0" parent="1">
          <mxGeometry x="740" y="1090" width="130" height="200.5" as="geometry" />
        </mxCell>
        <mxCell id="UPQlUuGARVjlreprbhLB-85" value="Instance Template" style="sketch=0;points=[[0,0,0],[0.25,0,0],[0.5,0,0],[0.75,0,0],[1,0,0],[1,0.25,0],[1,0.5,0],[1,0.75,0],[1,1,0],[0.75,1,0],[0.5,1,0],[0.25,1,0],[0,1,0],[0,0.75,0],[0,0.5,0],[0,0.25,0]];rounded=1;absoluteArcSize=1;arcSize=2;html=1;strokeColor=none;gradientColor=none;shadow=0;dashed=0;fontSize=12;fontColor=#000000;align=left;verticalAlign=bottom;spacing=10;spacingTop=-4;whiteSpace=wrap;fillColor=#F8CECC;labelBackgroundColor=none;labelBorderColor=none;spacingLeft=-12;fontFamily=Helvetica;labelPosition=center;verticalLabelPosition=top;spacingBottom=23;" vertex="1" parent="UPQlUuGARVjlreprbhLB-84">
          <mxGeometry x="-10" y="0.5" width="130" height="70" as="geometry">
            <mxPoint x="10" y="50" as="offset" />
          </mxGeometry>
        </mxCell>
        <mxCell id="UPQlUuGARVjlreprbhLB-86" value="" style="sketch=0;points=[[0,0,0],[0.25,0,0],[0.5,0,0],[0.75,0,0],[1,0,0],[1,0.25,0],[1,0.5,0],[1,0.75,0],[1,1,0],[0.75,1,0],[0.5,1,0],[0.25,1,0],[0,1,0],[0,0.75,0],[0,0.5,0],[0,0.25,0]];rounded=1;absoluteArcSize=1;arcSize=2;html=1;strokeColor=none;gradientColor=none;shadow=0;dashed=0;fontSize=12;fontColor=#000000;align=left;verticalAlign=top;spacing=10;spacingTop=-55;whiteSpace=wrap;fillColor=#FFFFFF;labelBackgroundColor=none;labelBorderColor=none;spacingLeft=-10;fontFamily=Helvetica;container=0;" vertex="1" parent="UPQlUuGARVjlreprbhLB-84">
          <mxGeometry y="22.5" width="110" height="30" as="geometry">
            <mxPoint x="10" y="50" as="offset" />
          </mxGeometry>
        </mxCell>
        <mxCell id="UPQlUuGARVjlreprbhLB-87" value="eu-west1-template" style="text;strokeColor=none;align=center;fillColor=none;html=1;verticalAlign=middle;whiteSpace=wrap;rounded=0;fontSize=12;fontFamily=Helvetica;fontColor=#000000;" vertex="1" parent="UPQlUuGARVjlreprbhLB-84">
          <mxGeometry y="55.5" width="110" height="10" as="geometry" />
        </mxCell>
        <mxCell id="UPQlUuGARVjlreprbhLB-88" value="192.168.0.2&lt;br style=&quot;font-size: 10px;&quot;&gt;Compute Engine" style="dashed=0;connectable=0;html=1;fillColor=#5184F3;strokeColor=none;shape=mxgraph.gcp2.hexIcon;prIcon=compute_engine;part=1;labelPosition=right;verticalLabelPosition=middle;align=left;verticalAlign=middle;spacingLeft=-8;fontColor=#000000;fontSize=10;overflow=visible;labelBackgroundColor=none;labelBorderColor=none;instNum=0;gradientColor=none;shadow=0;spacingTop=5;spacingBottom=-30;" vertex="1" parent="UPQlUuGARVjlreprbhLB-84">
          <mxGeometry x="-4.220000000000027" y="19.5" width="37.22" height="35" as="geometry">
            <mxPoint x="5" y="-19.5" as="offset" />
          </mxGeometry>
        </mxCell>
        <mxCell id="UPQlUuGARVjlreprbhLB-89" value="" style="group" vertex="1" connectable="0" parent="UPQlUuGARVjlreprbhLB-84">
          <mxGeometry y="80" width="130" height="120.5" as="geometry" />
        </mxCell>
        <mxCell id="UPQlUuGARVjlreprbhLB-90" value="Instance Group" style="sketch=0;points=[[0,0,0],[0.25,0,0],[0.5,0,0],[0.75,0,0],[1,0,0],[1,0.25,0],[1,0.5,0],[1,0.75,0],[1,1,0],[0.75,1,0],[0.5,1,0],[0.25,1,0],[0,1,0],[0,0.75,0],[0,0.5,0],[0,0.25,0]];rounded=1;absoluteArcSize=1;arcSize=2;html=1;strokeColor=none;gradientColor=none;shadow=0;dashed=0;fontSize=12;fontColor=#000000;align=left;verticalAlign=bottom;spacing=10;spacingTop=-4;whiteSpace=wrap;fillColor=#F8CECC;labelBackgroundColor=none;labelBorderColor=none;spacingLeft=-12;fontFamily=Helvetica;labelPosition=center;verticalLabelPosition=top;spacingBottom=23;" vertex="1" parent="UPQlUuGARVjlreprbhLB-89">
          <mxGeometry x="-10" y="0.5" width="130" height="70" as="geometry">
            <mxPoint x="10" y="50" as="offset" />
          </mxGeometry>
        </mxCell>
        <mxCell id="UPQlUuGARVjlreprbhLB-91" value="" style="sketch=0;points=[[0,0,0],[0.25,0,0],[0.5,0,0],[0.75,0,0],[1,0,0],[1,0.25,0],[1,0.5,0],[1,0.75,0],[1,1,0],[0.75,1,0],[0.5,1,0],[0.25,1,0],[0,1,0],[0,0.75,0],[0,0.5,0],[0,0.25,0]];rounded=1;absoluteArcSize=1;arcSize=2;html=1;strokeColor=none;gradientColor=none;shadow=0;dashed=0;fontSize=12;fontColor=#000000;align=left;verticalAlign=top;spacing=10;spacingTop=-55;whiteSpace=wrap;fillColor=#FFFFFF;labelBackgroundColor=none;labelBorderColor=none;spacingLeft=-10;fontFamily=Helvetica;container=0;" vertex="1" parent="UPQlUuGARVjlreprbhLB-89">
          <mxGeometry y="22.5" width="110" height="30" as="geometry">
            <mxPoint x="10" y="50" as="offset" />
          </mxGeometry>
        </mxCell>
        <mxCell id="UPQlUuGARVjlreprbhLB-92" value="eu-west1-mig" style="text;strokeColor=none;align=center;fillColor=none;html=1;verticalAlign=middle;whiteSpace=wrap;rounded=0;fontSize=12;fontFamily=Helvetica;fontColor=#000000;" vertex="1" parent="UPQlUuGARVjlreprbhLB-89">
          <mxGeometry y="55.5" width="110" height="10" as="geometry" />
        </mxCell>
        <mxCell id="UPQlUuGARVjlreprbhLB-93" value="192.168.0.2&lt;br style=&quot;font-size: 10px;&quot;&gt;Compute Engine" style="dashed=0;connectable=0;html=1;fillColor=#5184F3;strokeColor=none;shape=mxgraph.gcp2.hexIcon;prIcon=compute_engine;part=1;labelPosition=right;verticalLabelPosition=middle;align=left;verticalAlign=middle;spacingLeft=-8;fontColor=#000000;fontSize=10;overflow=visible;labelBackgroundColor=none;labelBorderColor=none;instNum=0;gradientColor=none;shadow=0;spacingTop=5;spacingBottom=-30;" vertex="1" parent="UPQlUuGARVjlreprbhLB-89">
          <mxGeometry x="-4.220000000000027" y="19.5" width="37.22" height="35" as="geometry">
            <mxPoint x="5" y="-19.5" as="offset" />
          </mxGeometry>
        </mxCell>
        <mxCell id="UPQlUuGARVjlreprbhLB-99" style="edgeStyle=orthogonalEdgeStyle;rounded=0;orthogonalLoop=1;jettySize=auto;html=1;entryX=0.454;entryY=0.009;entryDx=0;entryDy=0;entryPerimeter=0;strokeWidth=2;" edge="1" parent="1" source="BLvqwAtGWl9acbZ8wkbC-120" target="UPQlUuGARVjlreprbhLB-54">
          <mxGeometry relative="1" as="geometry">
            <Array as="points">
              <mxPoint x="579" y="860" />
              <mxPoint x="383" y="860" />
            </Array>
          </mxGeometry>
        </mxCell>
      </root>
    </mxGraphModel>
  </diagram>
</mxfile>
